<svg xmlns="http://www.w3.org/2000/svg" width="149.654" height="36.421" viewBox="0 0 149.654 36.421">
  <g id="Group_24025" data-name="Group 24025" transform="translate(-158 -39)">
    <path id="Path_26818" data-name="Path 26818" d="M466.631,306.147H446.4l21.849-29.135a2.023,2.023,0,0,0-1.618-3.237H410.038a2.023,2.023,0,0,0-2.023,2.023v26.3l-20.635-27.516a2.023,2.023,0,0,0-3.642,1.214v30.349H355.415V275.8a2.023,2.023,0,0,0-3.453-1.43l-14.754,14.755-14.754-14.755A2.023,2.023,0,0,0,319,275.8v32.372a2.023,2.023,0,1,0,4.046,0V280.683l12.731,12.732a2.022,2.022,0,0,0,2.86,0l12.731-12.732v27.487a2.023,2.023,0,0,0,2.023,2.023h32.369a2.023,2.023,0,0,0,2.023-2.023v-26.3l20.635,27.517a2.023,2.023,0,0,0,1.618.809,2.05,2.05,0,0,0,.64-.1,2.025,2.025,0,0,0,1.383-1.92V277.821h50.524l-21.849,29.135a2.023,2.023,0,0,0,1.618,3.237h24.277a2.023,2.023,0,0,0,0-4.047Z" transform="translate(-161 -234.773)" fill="#009ddf"/>
    <path id="Path_26819" data-name="Path 26819" d="M376.023,277.822h16.185a2.023,2.023,0,0,0,0-4.047H376.023a2.023,2.023,0,0,0,0,4.047Z" transform="translate(-175.539 -234.775)" fill="#009ddf"/>
    <path id="Path_26820" data-name="Path 26820" d="M376.023,299.822h16.185a2.023,2.023,0,0,0,0-4.047H376.023a2.023,2.023,0,0,0,0,4.047Z" transform="translate(-175.539 -240.588)" fill="#009ddf"/>
    <path id="Path_26821" data-name="Path 26821" d="M465.241,284.775a2.023,2.023,0,0,0-2.023,2.023v24.279a2.023,2.023,0,1,0,4.046,0V286.8A2.024,2.024,0,0,0,465.241,284.775Z" transform="translate(-200.123 -237.682)" fill="#009ddf"/>
  </g>
</svg>
